<?xml version="1.0" encoding="UTF-8" standalone="no"?>
<svg
   xmlns:dc="http://purl.org/dc/elements/1.1/"
   xmlns:cc="http://creativecommons.org/ns#"
   xmlns:rdf="http://www.w3.org/1999/02/22-rdf-syntax-ns#"
   xmlns:svg="http://www.w3.org/2000/svg"
   xmlns="http://www.w3.org/2000/svg"
   id="svg2"
   height="200"
   width="500"
   version="1.0">
  <metadata
     id="metadata44">
    <rdf:RDF>
      <cc:Work
         rdf:about="">
        <dc:format>image/svg+xml</dc:format>
        <dc:type
           rdf:resource="http://purl.org/dc/dcmitype/StillImage" />
        <dc:title></dc:title>
      </cc:Work>
    </rdf:RDF>
  </metadata>
  <defs
     id="defs4">
    <clipPath
       id="clipPath2403">
      <path
         id="path2405"
         d="m 0,841.89 1190.551,0 0,-841.89 L 0,0 0,841.89 z" />
    </clipPath>
  </defs>
  <g
     id="layer1"
     transform="matrix(1.1146452,0.27980901,-0.28761786,1.0843825,160.3401,-942.40983)">
    <g
       id="g2397"
       transform="matrix(1.25,0,0,-1.25,-176.96804,1762.9502)">
      <g
         id="g2399">
        <g
           id="g2401"
           clip-path="url(#clipPath2403)">
          <path
             style="fill:#6ec72d;fill-opacity:1;fill-rule:nonzero;stroke:none"
             id="path2407"
             d="m 279.909,712.102 0,-26.24 c 0,-3.749 -1.949,-5.471 -5.476,-5.471 l -9.592,0 c -3.526,0 -5.474,1.722 -5.474,5.471 l 0,26.24 -28.112,0 0,14.993 -7.349,0 0,-14.993 -7.722,0 0,-7.423 7.722,0 0,-18.666 c 0,-8.026 5.396,-12.97 12.822,-12.97 l 3.823,0 0.15,7.42 -3.973,0 c -3.522,0 -5.473,1.875 -5.473,5.55 l 0,18.666 20.763,0 0,-18.817 c 0,-7.947 5.55,-12.819 12.823,-12.819 l 9.592,0 c 7.275,0 12.822,4.872 12.822,12.819 l 0,26.24 -7.346,0 z" />
          <path
             style="fill:#231f20;fill-opacity:1;fill-rule:nonzero;stroke:none"
             id="path2409"
             d="m 308.03,699.103 c -2.341,0 -3.247,1.487 -3.247,3.677 l 0,7.93 -2.517,0 0,1.158 2.517,0 0,3.476 1.257,0.301 0,-3.777 3.905,0 0,-1.158 -3.905,0 0,-7.881 c 0,-1.485 0.402,-2.545 2.092,-2.545 0.68,0 1.308,0.105 1.988,0.23 l 0,-1.109 c -0.704,-0.151 -1.384,-0.302 -2.09,-0.302" />
          <path
             style="fill:#231f20;fill-opacity:1;fill-rule:nonzero;stroke:none"
             id="path2411"
             d="m 323.01,705.271 -9.617,0 c 0.026,-1.46 0.503,-2.817 1.308,-3.775 0.706,-0.833 1.688,-1.335 3.048,-1.335 1.108,0 2.065,0.404 2.744,1.108 0.454,0.478 0.806,1.033 0.956,1.787 l 1.308,0 c -0.175,-1.083 -0.703,-1.965 -1.408,-2.643 -0.905,-0.905 -2.165,-1.46 -3.6,-1.46 -1.813,0 -3.097,0.755 -4.004,1.785 -1.033,1.208 -1.611,2.872 -1.611,4.785 0,1.585 0.251,3.147 1.233,4.481 1.058,1.435 2.519,2.19 4.28,2.19 3.399,0 5.389,-2.921 5.389,-6.091 0,-0.304 -0.026,-0.527 -0.026,-0.832 m -5.363,5.739 c -2.593,0 -4.228,-2.088 -4.228,-4.579 l 8.332,0 c -0.049,2.391 -1.536,4.579 -4.104,4.579" />
          <path
             style="fill:#231f20;fill-opacity:1;fill-rule:nonzero;stroke:none"
             id="path2413"
             d="m 331.168,698.953 c -1.561,0 -2.821,0.602 -3.701,1.485 -1.31,1.309 -1.764,2.996 -1.764,5.138 0,2.136 0.454,3.823 1.764,5.134 0.88,0.881 2.14,1.484 3.701,1.484 2.618,0 4.557,-1.71 4.859,-4.257 l -1.309,0 c -0.279,1.74 -1.637,3.023 -3.55,3.023 -1.21,0 -2.141,-0.401 -2.796,-1.081 -1.132,-1.181 -1.385,-2.669 -1.385,-4.303 0,-1.64 0.253,-3.147 1.385,-4.332 0.655,-0.679 1.586,-1.056 2.796,-1.056 1.938,0 3.271,1.357 3.576,3.069 l 1.333,0 c -0.327,-2.442 -2.267,-4.304 -4.909,-4.304" />
          <path
             style="fill:#231f20;fill-opacity:1;fill-rule:nonzero;stroke:none"
             id="path2415"
             d="m 348.185,699.28 0,8.232 c 0,2.19 -0.956,3.498 -3.248,3.498 -3.096,0 -4.18,-2.716 -4.18,-5.434 l 0,-6.296 -1.258,0 0,18.177 1.258,0 0,-7.906 c 0.704,1.614 2.493,2.643 4.255,2.643 2.894,0 4.432,-1.786 4.432,-4.606 l 0,-8.308 -1.259,0 z" />
          <path
             style="fill:#231f20;fill-opacity:1;fill-rule:nonzero;stroke:none"
             id="path2417"
             d="m 362.863,699.28 0,8.232 c 0,2.19 -0.956,3.448 -3.249,3.448 -3.096,0 -4.177,-2.666 -4.177,-5.384 l 0,-6.296 -1.26,0 0,12.588 1.108,0 0.152,-2.29 c 0.705,1.587 2.493,2.616 4.254,2.616 2.896,0 4.432,-1.786 4.432,-4.606 l 0,-8.308 -1.26,0 z" />
          <path
             style="fill:#231f20;fill-opacity:1;fill-rule:nonzero;stroke:none"
             id="path2419"
             d="m 368.755,717.128 1.761,0 0,-1.761 -1.761,0 0,1.761 z m 0.227,-5.26 1.334,0 0,-12.588 -1.334,0 0,12.588 z" />
          <path
             style="fill:#231f20;fill-opacity:1;fill-rule:nonzero;stroke:none"
             id="path2421"
             d="m 383.534,700.462 c -0.906,-1.006 -2.417,-1.509 -4.078,-1.509 -1.712,0 -3.173,0.527 -4.13,1.612 -0.704,0.804 -1.008,1.508 -1.057,2.542 l 1.283,0 c 0.075,-0.758 0.404,-1.411 0.933,-1.94 0.728,-0.705 1.761,-1.006 2.971,-1.006 1.31,0 2.341,0.301 2.971,0.93 0.451,0.454 0.678,0.882 0.678,1.612 0,1.133 -0.805,2.09 -2.315,2.291 l -2.443,0.328 c -1.031,0.125 -2.14,0.454 -2.845,1.258 -0.453,0.528 -0.705,1.184 -0.705,1.991 0,1.007 0.429,1.837 1.083,2.439 0.907,0.836 2.141,1.184 3.45,1.184 1.509,0 2.944,-0.476 3.801,-1.484 0.578,-0.68 0.932,-1.512 0.958,-2.315 l -1.26,0 c -0.049,0.402 -0.226,1.033 -0.629,1.509 -0.58,0.68 -1.562,1.106 -2.87,1.106 -0.983,0 -1.712,-0.173 -2.267,-0.575 -0.628,-0.455 -0.98,-1.06 -0.98,-1.737 0,-1.059 0.528,-1.865 2.44,-2.118 l 2.392,-0.328 c 2.366,-0.325 3.475,-1.937 3.475,-3.472 0,-0.934 -0.301,-1.689 -0.856,-2.318" />
          <path
             style="fill:#231f20;fill-opacity:1;fill-rule:nonzero;stroke:none"
             id="path2423"
             d="m 392.673,698.953 c -1.561,0 -2.819,0.602 -3.699,1.485 -1.31,1.309 -1.765,2.996 -1.765,5.138 0,2.136 0.455,3.823 1.765,5.134 0.88,0.881 2.138,1.484 3.699,1.484 2.619,0 4.556,-1.71 4.859,-4.257 l -1.307,0 c -0.278,1.74 -1.637,3.023 -3.552,3.023 -1.208,0 -2.141,-0.401 -2.796,-1.081 -1.131,-1.181 -1.383,-2.669 -1.383,-4.303 0,-1.64 0.252,-3.147 1.383,-4.332 0.655,-0.679 1.588,-1.056 2.796,-1.056 1.938,0 3.274,1.357 3.575,3.069 l 1.335,0 c -0.329,-2.442 -2.267,-4.304 -4.91,-4.304" />
          <path
             style="fill:#231f20;fill-opacity:1;fill-rule:nonzero;stroke:none"
             id="path2425"
             d="m 409.691,699.28 0,8.232 c 0,2.19 -0.957,3.498 -3.249,3.498 -3.097,0 -4.177,-2.716 -4.177,-5.434 l 0,-6.296 -1.262,0 0,18.177 1.262,0 0,-7.906 c 0.703,1.614 2.49,2.643 4.252,2.643 2.898,0 4.433,-1.786 4.433,-4.606 l 0,-8.308 -1.259,0 z" />
          <path
             style="fill:#231f20;fill-opacity:1;fill-rule:nonzero;stroke:none"
             id="path2427"
             d="m 425.477,705.271 -9.616,0 c 0.024,-1.46 0.502,-2.817 1.307,-3.775 0.706,-0.833 1.689,-1.335 3.047,-1.335 1.107,0 2.065,0.404 2.745,1.108 0.452,0.478 0.805,1.033 0.957,1.787 l 1.309,0 c -0.177,-1.083 -0.707,-1.965 -1.411,-2.643 -0.907,-0.905 -2.165,-1.46 -3.6,-1.46 -1.815,0 -3.096,0.755 -4.002,1.785 -1.032,1.208 -1.613,2.872 -1.613,4.785 0,1.585 0.253,3.147 1.234,4.481 1.058,1.435 2.517,2.19 4.281,2.19 3.399,0 5.387,-2.921 5.387,-6.091 0,-0.304 -0.025,-0.527 -0.025,-0.832 m -5.362,5.739 c -2.594,0 -4.23,-2.088 -4.23,-4.579 l 8.333,0 c -0.051,2.391 -1.536,4.579 -4.103,4.579" />
          <path
             style="fill:#231f20;fill-opacity:1;fill-rule:nonzero;stroke:none"
             id="path2429"
             d="m 443.252,699.306 -0.152,2.291 c -0.705,-1.613 -2.492,-2.619 -4.255,-2.619 -2.895,0 -4.43,1.787 -4.43,4.607 l 0,8.309 1.258,0 0,-8.234 c 0,-2.19 0.956,-3.449 3.249,-3.449 3.094,0 4.178,2.668 4.178,5.387 l 0,6.296 1.26,0 0,-12.588 -1.108,0 z" />
          <path
             style="fill:#231f20;fill-opacity:1;fill-rule:nonzero;stroke:none"
             id="path2431"
             d="m 458.032,699.28 0,8.232 c 0,2.19 -0.958,3.448 -3.249,3.448 -3.097,0 -4.18,-2.666 -4.18,-5.384 l 0,-6.296 -1.258,0 0,12.588 1.107,0 0.151,-2.29 c 0.705,1.587 2.494,2.616 4.255,2.616 2.896,0 4.431,-1.786 4.431,-4.606 l 0,-8.308 -1.257,0 z" />
          <path
             style="fill:#231f20;fill-opacity:1;fill-rule:nonzero;stroke:none"
             id="path2433"
             d="m 463.923,717.128 1.762,0 0,-1.761 -1.762,0 0,1.761 z m 0.226,-5.26 1.332,0 0,-12.588 -1.332,0 0,12.588 z" />
          <path
             style="fill:#231f20;fill-opacity:1;fill-rule:nonzero;stroke:none"
             id="path2435"
             d="m 474.699,699.28 -1.286,0 -4.983,12.588 1.434,0 4.231,-10.801 4.051,10.801 1.337,0 -4.784,-12.588 z" />
          <path
             style="fill:#231f20;fill-opacity:1;fill-rule:nonzero;stroke:none"
             id="path2437"
             d="m 491.991,705.271 -9.616,0 c 0.024,-1.46 0.503,-2.817 1.308,-3.775 0.704,-0.833 1.688,-1.335 3.046,-1.335 1.11,0 2.065,0.404 2.744,1.108 0.454,0.478 0.806,1.033 0.956,1.787 l 1.31,0 c -0.176,-1.083 -0.704,-1.965 -1.408,-2.643 -0.909,-0.905 -2.167,-1.46 -3.602,-1.46 -1.812,0 -3.098,0.755 -4.002,1.785 -1.033,1.208 -1.611,2.872 -1.611,4.785 0,1.585 0.25,3.147 1.233,4.481 1.059,1.435 2.518,2.19 4.279,2.19 3.399,0 5.388,-2.921 5.388,-6.091 0,-0.304 -0.025,-0.527 -0.025,-0.832 m -5.363,5.739 c -2.59,0 -4.229,-2.088 -4.229,-4.579 l 8.334,0 c -0.05,2.391 -1.536,4.579 -4.105,4.579" />
          <path
             style="fill:#231f20;fill-opacity:1;fill-rule:nonzero;stroke:none"
             id="path2439"
             d="m 501.03,710.785 c -3.149,0 -4.002,-2.819 -4.002,-5.463 l 0,-6.042 -1.26,0 0,12.588 1.107,0 0.153,-2.542 c 0.552,1.737 2.238,2.668 4.002,2.668 0.402,0 0.83,0 1.234,-0.076 l 0,-1.259 c -0.404,0.102 -0.832,0.126 -1.234,0.126" />
          <path
             style="fill:#231f20;fill-opacity:1;fill-rule:nonzero;stroke:none"
             id="path2441"
             d="m 513.239,700.462 c -0.904,-1.006 -2.415,-1.509 -4.079,-1.509 -1.709,0 -3.171,0.527 -4.129,1.612 -0.706,0.804 -1.005,1.508 -1.054,2.542 l 1.281,0 c 0.076,-0.758 0.404,-1.411 0.933,-1.94 0.728,-0.705 1.761,-1.006 2.969,-1.006 1.312,0 2.343,0.301 2.97,0.93 0.455,0.454 0.683,0.882 0.683,1.612 0,1.133 -0.806,2.09 -2.319,2.291 l -2.442,0.328 c -1.032,0.125 -2.14,0.454 -2.843,1.258 -0.452,0.528 -0.705,1.184 -0.705,1.991 0,1.007 0.427,1.837 1.081,2.439 0.907,0.836 2.14,1.184 3.448,1.184 1.513,0 2.947,-0.476 3.805,-1.484 0.58,-0.68 0.931,-1.512 0.955,-2.315 l -1.259,0 c -0.05,0.402 -0.225,1.033 -0.628,1.509 -0.582,0.68 -1.56,1.106 -2.873,1.106 -0.981,0 -1.71,-0.173 -2.263,-0.575 -0.63,-0.455 -0.983,-1.06 -0.983,-1.737 0,-1.059 0.53,-1.865 2.44,-2.118 l 2.394,-0.328 c 2.367,-0.325 3.475,-1.937 3.475,-3.472 0,-0.934 -0.303,-1.689 -0.857,-2.318" />
          <path
             style="fill:#231f20;fill-opacity:1;fill-rule:nonzero;stroke:none"
             id="path2443"
             d="m 517.899,717.128 1.761,0 0,-1.761 -1.761,0 0,1.761 z m 0.226,-5.26 1.335,0 0,-12.588 -1.335,0 0,12.588 z" />
          <path
             style="fill:#231f20;fill-opacity:1;fill-rule:nonzero;stroke:none"
             id="path2445"
             d="m 528.422,699.103 c -2.341,0 -3.249,1.487 -3.249,3.677 l 0,7.93 -2.516,0 0,1.158 2.516,0 0,3.476 1.258,0.301 0,-3.777 3.903,0 0,-1.158 -3.903,0 0,-7.881 c 0,-1.485 0.403,-2.545 2.09,-2.545 0.681,0 1.31,0.105 1.992,0.23 l 0,-1.109 c -0.706,-0.151 -1.386,-0.302 -2.091,-0.302" />
          <path
             style="fill:#231f20;fill-opacity:1;fill-rule:nonzero;stroke:none"
             id="path2447"
             d="m 543.68,699.202 c -1.562,0 -1.991,1.134 -1.991,2.469 -0.68,-1.788 -2.593,-2.718 -4.532,-2.718 -2.44,0 -4.332,1.46 -4.332,3.876 0,2.24 1.738,3.576 4.234,3.751 l 4.63,0.329 0,1.233 c 0,2.091 -1.411,2.868 -3.323,2.868 -1.988,0 -3.499,-0.904 -3.626,-2.767 l -1.258,0 c 0.178,2.542 2.165,3.951 4.884,3.951 1.712,0 3.575,-0.578 4.256,-2.315 0.301,-0.78 0.326,-1.585 0.326,-2.418 l 0,-5.74 c 0,-0.856 0.127,-1.358 0.983,-1.358 0.151,0 0.226,0 0.352,0.026 l 0,-1.109 c -0.303,-0.05 -0.303,-0.078 -0.603,-0.078 m -1.991,6.547 -4.506,-0.278 c -1.864,-0.122 -3.071,-1.104 -3.071,-2.642 0,-1.812 1.359,-2.719 3.145,-2.719 3.173,0 4.432,2.568 4.432,4.986 l 0,0.653 z m -6.342,10.801 1.509,0 0,-1.585 -1.509,0 0,1.585 z m 4.63,0 1.535,0 0,-1.585 -1.535,0 0,1.585 z" />
          <path
             style="fill:#231f20;fill-opacity:1;fill-rule:nonzero;stroke:none"
             id="path2449"
             d="m 551.732,699.103 c -2.341,0 -3.249,1.487 -3.249,3.677 l 0,7.93 -2.517,0 0,1.158 2.517,0 0,3.476 1.259,0.301 0,-3.777 3.902,0 0,-1.158 -3.902,0 0,-7.881 c 0,-1.485 0.403,-2.545 2.092,-2.545 0.677,0 1.308,0.105 1.988,0.23 l 0,-1.109 c -0.705,-0.151 -1.386,-0.302 -2.09,-0.302" />
          <path
             style="fill:#231f20;fill-opacity:1;fill-rule:nonzero;stroke:none"
             id="path2451"
             d="m 312.763,673.03 -0.149,2.215 c -0.682,-1.561 -2.494,-2.542 -4.181,-2.542 -1.433,0 -2.517,0.451 -3.348,1.183 -1.41,1.232 -2.064,3.248 -2.064,5.411 0,2.065 0.63,4.08 1.963,5.339 0.831,0.803 1.965,1.31 3.423,1.31 1.79,0 3.525,-1.008 4.207,-2.445 l 0,7.705 1.257,0 0,-18.176 -1.108,0 z m -1.711,10.699 c -0.629,0.604 -1.485,0.982 -2.645,0.982 -1.183,0 -2.038,-0.428 -2.693,-1.108 -0.983,-1.056 -1.41,-2.669 -1.41,-4.279 0,-1.79 0.503,-3.475 1.662,-4.508 0.63,-0.554 1.434,-0.881 2.494,-0.881 1.107,0 1.937,0.404 2.566,1.009 1.134,1.103 1.613,2.641 1.613,4.38 0,1.863 -0.429,3.322 -1.587,4.405" />
          <path
             style="fill:#231f20;fill-opacity:1;fill-rule:nonzero;stroke:none"
             id="path2453"
             d="m 326.912,674.212 c -0.881,-0.88 -2.113,-1.509 -3.674,-1.509 -1.562,0 -2.794,0.629 -3.679,1.509 -1.308,1.309 -1.784,2.97 -1.784,5.112 0,2.139 0.476,3.803 1.784,5.111 0.885,0.882 2.117,1.511 3.679,1.511 1.561,0 2.793,-0.629 3.674,-1.511 1.31,-1.308 1.788,-2.972 1.788,-5.111 0,-2.142 -0.478,-3.803 -1.788,-5.112 m -0.905,9.391 c -0.654,0.68 -1.562,1.108 -2.769,1.108 -1.207,0 -2.116,-0.428 -2.77,-1.108 -1.133,-1.184 -1.41,-2.644 -1.41,-4.279 0,-1.636 0.277,-3.098 1.41,-4.281 0.654,-0.681 1.563,-1.108 2.77,-1.108 1.207,0 2.115,0.427 2.769,1.108 1.134,1.183 1.409,2.645 1.409,4.281 0,1.635 -0.275,3.095 -1.409,4.279" />
          <path
             style="fill:#231f20;fill-opacity:1;fill-rule:nonzero;stroke:none"
             id="path2455"
             d="m 337.864,684.536 c -3.148,0 -4.003,-2.822 -4.003,-5.466 l 0,-6.04 -1.259,0 0,12.589 1.106,0 0.153,-2.545 c 0.555,1.739 2.24,2.67 4.003,2.67 0.403,0 0.831,0 1.234,-0.077 l 0,-1.259 c -0.403,0.101 -0.831,0.128 -1.234,0.128" />
          <path
             style="fill:#231f20;fill-opacity:1;fill-rule:nonzero;stroke:none"
             id="path2457"
             d="m 346.316,672.852 c -2.34,0 -3.247,1.487 -3.247,3.676 l 0,7.933 -2.517,0 0,1.158 2.517,0 0,3.473 1.26,0.304 0,-3.777 3.902,0 0,-1.158 -3.902,0 0,-7.882 c 0,-1.484 0.4,-2.542 2.09,-2.542 0.679,0 1.309,0.099 1.987,0.225 l 0,-1.108 c -0.704,-0.15 -1.385,-0.302 -2.09,-0.302" />
          <path
             style="fill:#231f20;fill-opacity:1;fill-rule:nonzero;stroke:none"
             id="path2459"
             d="m 367.794,673.03 0,8.232 c 0,2.191 -0.807,3.498 -2.998,3.498 -0.956,0 -1.661,-0.325 -2.24,-0.856 -0.982,-0.931 -1.485,-2.238 -1.485,-3.752 l 0,-7.122 -1.284,0 0,8.232 c 0,2.191 -0.831,3.498 -3.021,3.498 -0.957,0 -1.688,-0.325 -2.242,-0.856 -1.133,-1.051 -1.51,-2.794 -1.51,-4.58 l 0,-6.294 -1.258,0 0,12.589 1.108,0 0.15,-2.166 c 0.655,1.434 2.015,2.493 3.825,2.493 2.194,0 3.476,-1.082 3.98,-2.72 0.655,1.56 1.989,2.72 4.054,2.72 2.945,0 4.18,-1.914 4.18,-4.609 l 0,-8.307 -1.259,0 z" />
          <path
             style="fill:#231f20;fill-opacity:1;fill-rule:nonzero;stroke:none"
             id="path2461"
             d="m 382.372,673.054 -0.154,2.291 c -0.705,-1.611 -2.49,-2.62 -4.254,-2.62 -2.896,0 -4.431,1.79 -4.431,4.611 l 0,8.306 1.259,0 0,-8.232 c 0,-2.19 0.958,-3.449 3.248,-3.449 3.097,0 4.178,2.669 4.178,5.388 l 0,6.293 1.26,0 0,-12.588 -1.106,0 z" />
          <path
             style="fill:#231f20;fill-opacity:1;fill-rule:nonzero;stroke:none"
             id="path2463"
             d="m 397.149,673.03 0,8.232 c 0,2.191 -0.957,3.449 -3.246,3.449 -3.098,0 -4.181,-2.669 -4.181,-5.387 l 0,-6.294 -1.258,0 0,12.589 1.107,0 0.151,-2.292 c 0.706,1.586 2.493,2.619 4.256,2.619 2.897,0 4.432,-1.79 4.432,-4.609 l 0,-8.307 -1.261,0 z" />
          <path
             style="fill:#231f20;fill-opacity:1;fill-rule:nonzero;stroke:none"
             id="path2465"
             d="m 411.753,673.03 -0.152,2.215 c -0.678,-1.561 -2.492,-2.542 -4.181,-2.542 -1.434,0 -2.516,0.451 -3.349,1.183 -1.409,1.232 -2.063,3.248 -2.063,5.411 0,2.065 0.631,4.08 1.966,5.339 0.831,0.803 1.961,1.31 3.422,1.31 1.789,0 3.527,-1.008 4.205,-2.445 l 0,7.705 1.26,0 0,-18.176 -1.108,0 z m -1.714,10.699 c -0.63,0.604 -1.485,0.982 -2.643,0.982 -1.183,0 -2.039,-0.428 -2.694,-1.108 -0.981,-1.056 -1.41,-2.669 -1.41,-4.279 0,-1.79 0.505,-3.475 1.66,-4.508 0.631,-0.554 1.437,-0.881 2.495,-0.881 1.107,0 1.938,0.404 2.567,1.009 1.133,1.103 1.613,2.641 1.613,4.38 0,1.863 -0.429,3.322 -1.588,4.405" />
        </g>
      </g>
    </g>
  </g>
  <g
     style="opacity:0.45064378"
     transform="matrix(0.67302977,0.11230836,-0.11708628,0.64556557,307.08708,-22.156149)"
     id="g3111">
    <circle
       style="fill:#6b85dd;stroke:#4266d5;stroke-width:3"
       cx="50.5"
       cy="58.665001"
       r="16.5"
       id="circle3087" />
    <circle
       style="fill:#d66661;stroke:#c93d39;stroke-width:3"
       cx="212.459"
       cy="60.249001"
       r="16.5"
       id="circle3089" />
    <circle
       style="fill:#6bab5b;stroke:#3b972e;stroke-width:3"
       cx="233.834"
       cy="23.874001"
       r="16.5"
       id="circle3091" />
    <circle
       style="fill:#aa7dc0;stroke:#945bb0;stroke-width:3"
       cx="255.459"
       cy="59.999001"
       r="16.5"
       id="circle3093" />
    <path
       style="fill:#252525"
       d="m 37.216,138.427 c 0,-15.839 0.006,-31.679 -0.018,-47.517 -10e-4,-0.827 0.169,-1.234 1.043,-1.47 7.876,-2.127 15.739,-4.308 23.606,-6.47 1.33,-0.366 1.333,-0.36 1.333,1.019 0,25.758 0.015,51.517 -0.012,77.274 -0.006,5.514 0.245,11.032 -0.272,16.543 -0.628,6.69 -2.15,13.092 -6.438,18.506 -3.781,4.771 -8.898,7.25 -14.767,8.338 -6.599,1.222 -13.251,1.552 -19.934,0.938 -4.616,-0.423 -9.045,-1.486 -12.844,-4.363 -2.863,-2.168 -4.454,-4.935 -3.745,-8.603 0.736,-3.806 3.348,-5.978 6.861,-7.127 2.262,-0.74 4.628,-0.872 6.994,-0.53 1.823,0.264 3.42,1.023 4.779,2.288 1.38,1.284 2.641,2.674 3.778,4.177 0.872,1.15 1.793,2.256 2.991,3.086 2.055,1.426 4,0.965 5.213,-1.216 0.819,-1.473 0.997,-3.106 1.173,-4.731 0.255,-2.348 0.255,-4.707 0.256,-7.062 0.005,-14.362 0.003,-28.721 0.003,-43.08 z"
       id="path3095" />
    <path
       style="fill:#252525"
       d="m 125.536,162.479 c -2.908,2.385 -5.783,4.312 -8.88,5.904 -10.348,5.323 -20.514,4.521 -30.324,-1.253 -6.71,-3.95 -11.012,-9.849 -12.52,-17.606 -0.236,-1.213 -0.363,-2.438 -0.363,-3.688 0.01,-19.797 0.017,-39.593 -0.02,-59.39 -0.002,-1.102 0.285,-1.357 1.363,-1.351 7.798,0.049 15.597,0.044 23.396,0.003 0.95,-0.005 1.177,0.25 1.175,1.183 -0.027,19.356 -0.025,38.713 -0.018,58.07 0.002,6.34 3.599,10.934 9.672,12.42 2.13,0.521 4.19,0.396 6.173,-0.6 4.26,-2.139 7.457,-5.427 10.116,-9.307 0.333,-0.487 0.224,-1 0.224,-1.51 0.007,-19.635 0.016,-39.271 -0.02,-58.904 -0.002,-1.083 0.255,-1.369 1.353,-1.361 7.838,0.052 15.677,0.045 23.515,0.004 0.916,-0.005 1.103,0.244 1.102,1.124 -0.025,27.677 -0.026,55.353 0.002,83.024 0.001,0.938 -0.278,1.099 -1.139,1.095 -7.918,-0.028 -15.837,-0.028 -23.756,-0.001 -0.815,0.003 -1.1,-0.166 -1.073,-1.037 0.067,-2.181 0.022,-4.37 0.022,-6.819 z"
       id="path3097" />
    <path
       style="fill:#252525"
       d="m 187.423,107.08 c 0,20.637 -0.011,41.273 0.026,61.91 0.003,1.119 -0.309,1.361 -1.381,1.355 -7.799,-0.052 -15.598,-0.047 -23.396,-0.008 -0.898,0.008 -1.117,-0.222 -1.115,-1.115 0.021,-39.074 0.021,-78.147 0,-117.226 0,-0.811 0.189,-1.169 1.006,-1.392 7.871,-2.149 15.73,-4.327 23.584,-6.545 1.045,-0.295 1.308,-0.17 1.306,0.985 -0.041,20.683 -0.03,41.359 -0.03,62.036 z"
       id="path3099" />
    <path
       style="fill:#252525"
       d="m 223.46,126.477 c 0,14.155 -0.011,28.312 0.021,42.467 0.002,1.027 -0.164,1.418 -1.332,1.408 -7.838,-0.061 -15.676,-0.047 -23.516,-0.01 -0.881,0.004 -1.121,-0.189 -1.119,-1.104 0.026,-26.153 0.025,-52.307 0,-78.458 0,-0.776 0.203,-1.101 0.941,-1.302 7.984,-2.172 15.972,-4.35 23.938,-6.596 1.049,-0.296 1.08,0.031 1.078,0.886 -0.017,14.236 -0.011,28.471 -0.011,42.709 z"
       id="path3101" />
    <path
       style="fill:#252525"
       d="m 277.695,163.6 c -0.786,0.646 -1.404,1.125 -2,1.635 -4.375,3.746 -9.42,5.898 -15.16,6.42 -5.792,0.527 -11.479,0.244 -16.934,-2.047 -12.08,-5.071 -15.554,-17.188 -11.938,-27.448 1.799,-5.111 5.472,-8.868 9.831,-11.94 5.681,-4.003 12.009,-6.732 18.504,-9.074 5.576,-2.014 11.186,-3.939 16.955,-5.347 0.445,-0.104 0.773,-0.243 0.757,-0.854 -0.136,-4.389 0.261,-8.79 -0.479,-13.165 -1.225,-7.209 -6.617,-10.013 -12.895,-9.348 -0.516,0.055 -1.029,0.129 -1.536,0.241 -4.877,1.081 -7.312,4.413 -7.374,10.127 -0.02,1.729 -0.229,3.418 -0.693,5.084 -0.906,3.229 -2.969,5.354 -6.168,6.266 -3.422,0.979 -6.893,0.998 -10.23,-0.305 -6.529,-2.543 -8.877,-10.164 -5.12,-16.512 2.249,-3.799 5.606,-6.4 9.461,-8.405 6.238,-3.246 12.914,-4.974 19.896,-5.537 7.565,-0.61 15.096,-0.366 22.49,1.507 4.285,1.085 8.312,2.776 11.744,5.657 4.473,3.749 6.776,8.647 6.812,14.374 0.139,21.477 0.096,42.951 0.143,64.428 0.002,0.799 -0.248,0.983 -1.021,0.98 -8.035,-0.025 -16.074,-0.023 -24.113,-10e-4 -0.716,0.002 -0.973,-0.146 -0.941,-0.915 0.05,-1.859 0.009,-3.723 0.009,-5.821 z m 0,-37.207 c -4.793,2.104 -9.25,4.373 -13.287,7.408 -2.151,1.618 -4.033,3.483 -5.732,5.581 -4.229,5.226 -1.988,13.343 1.693,16.599 1.592,1.406 3.359,1.906 5.419,1.521 1.621,-0.307 3.149,-0.857 4.549,-1.734 1.521,-0.951 2.949,-2.072 4.539,-2.887 2.31,-1.18 2.97,-2.861 2.894,-5.445 -0.209,-6.952 -0.075,-13.909 -0.075,-21.043 z"
       id="path3103" />
  </g>
  <g
     id="g3910"
     transform="matrix(-2.4086579,-0.83414084,-0.76939235,2.3270945,706.53757,195.10694)"
     style="opacity:0.33905579">
    <circle
       id="circle3912"
       r="16.5"
       cy="58.665001"
       cx="50.5"
       style="fill:#6b85dd;stroke:#4266d5;stroke-width:3" />
    <circle
       id="circle3914"
       r="16.5"
       cy="60.249001"
       cx="212.459"
       style="fill:#d66661;stroke:#c93d39;stroke-width:3" />
    <circle
       id="circle3916"
       r="16.5"
       cy="23.874001"
       cx="233.834"
       style="fill:#6bab5b;stroke:#3b972e;stroke-width:3" />
    <circle
       id="circle3918"
       r="16.5"
       cy="59.999001"
       cx="255.459"
       style="fill:#aa7dc0;stroke:#945bb0;stroke-width:3" />
    <path
       id="path3920"
       d="m 37.216,138.427 c 0,-15.839 0.006,-31.679 -0.018,-47.517 -10e-4,-0.827 0.169,-1.234 1.043,-1.47 7.876,-2.127 15.739,-4.308 23.606,-6.47 1.33,-0.366 1.333,-0.36 1.333,1.019 0,25.758 0.015,51.517 -0.012,77.274 -0.006,5.514 0.245,11.032 -0.272,16.543 -0.628,6.69 -2.15,13.092 -6.438,18.506 -3.781,4.771 -8.898,7.25 -14.767,8.338 -6.599,1.222 -13.251,1.552 -19.934,0.938 -4.616,-0.423 -9.045,-1.486 -12.844,-4.363 -2.863,-2.168 -4.454,-4.935 -3.745,-8.603 0.736,-3.806 3.348,-5.978 6.861,-7.127 2.262,-0.74 4.628,-0.872 6.994,-0.53 1.823,0.264 3.42,1.023 4.779,2.288 1.38,1.284 2.641,2.674 3.778,4.177 0.872,1.15 1.793,2.256 2.991,3.086 2.055,1.426 4,0.965 5.213,-1.216 0.819,-1.473 0.997,-3.106 1.173,-4.731 0.255,-2.348 0.255,-4.707 0.256,-7.062 0.005,-14.362 0.003,-28.721 0.003,-43.08 z"
       style="fill:#252525" />
    <path
       id="path3922"
       d="m 125.536,162.479 c -2.908,2.385 -5.783,4.312 -8.88,5.904 -10.348,5.323 -20.514,4.521 -30.324,-1.253 -6.71,-3.95 -11.012,-9.849 -12.52,-17.606 -0.236,-1.213 -0.363,-2.438 -0.363,-3.688 0.01,-19.797 0.017,-39.593 -0.02,-59.39 -0.002,-1.102 0.285,-1.357 1.363,-1.351 7.798,0.049 15.597,0.044 23.396,0.003 0.95,-0.005 1.177,0.25 1.175,1.183 -0.027,19.356 -0.025,38.713 -0.018,58.07 0.002,6.34 3.599,10.934 9.672,12.42 2.13,0.521 4.19,0.396 6.173,-0.6 4.26,-2.139 7.457,-5.427 10.116,-9.307 0.333,-0.487 0.224,-1 0.224,-1.51 0.007,-19.635 0.016,-39.271 -0.02,-58.904 -0.002,-1.083 0.255,-1.369 1.353,-1.361 7.838,0.052 15.677,0.045 23.515,0.004 0.916,-0.005 1.103,0.244 1.102,1.124 -0.025,27.677 -0.026,55.353 0.002,83.024 0.001,0.938 -0.278,1.099 -1.139,1.095 -7.918,-0.028 -15.837,-0.028 -23.756,-0.001 -0.815,0.003 -1.1,-0.166 -1.073,-1.037 0.067,-2.181 0.022,-4.37 0.022,-6.819 z"
       style="fill:#252525" />
    <path
       id="path3924"
       d="m 187.423,107.08 c 0,20.637 -0.011,41.273 0.026,61.91 0.003,1.119 -0.309,1.361 -1.381,1.355 -7.799,-0.052 -15.598,-0.047 -23.396,-0.008 -0.898,0.008 -1.117,-0.222 -1.115,-1.115 0.021,-39.074 0.021,-78.147 0,-117.226 0,-0.811 0.189,-1.169 1.006,-1.392 7.871,-2.149 15.73,-4.327 23.584,-6.545 1.045,-0.295 1.308,-0.17 1.306,0.985 -0.041,20.683 -0.03,41.359 -0.03,62.036 z"
       style="fill:#252525" />
    <path
       id="path3926"
       d="m 223.46,126.477 c 0,14.155 -0.011,28.312 0.021,42.467 0.002,1.027 -0.164,1.418 -1.332,1.408 -7.838,-0.061 -15.676,-0.047 -23.516,-0.01 -0.881,0.004 -1.121,-0.189 -1.119,-1.104 0.026,-26.153 0.025,-52.307 0,-78.458 0,-0.776 0.203,-1.101 0.941,-1.302 7.984,-2.172 15.972,-4.35 23.938,-6.596 1.049,-0.296 1.08,0.031 1.078,0.886 -0.017,14.236 -0.011,28.471 -0.011,42.709 z"
       style="fill:#252525" />
    <path
       id="path3928"
       d="m 277.695,163.6 c -0.786,0.646 -1.404,1.125 -2,1.635 -4.375,3.746 -9.42,5.898 -15.16,6.42 -5.792,0.527 -11.479,0.244 -16.934,-2.047 -12.08,-5.071 -15.554,-17.188 -11.938,-27.448 1.799,-5.111 5.472,-8.868 9.831,-11.94 5.681,-4.003 12.009,-6.732 18.504,-9.074 5.576,-2.014 11.186,-3.939 16.955,-5.347 0.445,-0.104 0.773,-0.243 0.757,-0.854 -0.136,-4.389 0.261,-8.79 -0.479,-13.165 -1.225,-7.209 -6.617,-10.013 -12.895,-9.348 -0.516,0.055 -1.029,0.129 -1.536,0.241 -4.877,1.081 -7.312,4.413 -7.374,10.127 -0.02,1.729 -0.229,3.418 -0.693,5.084 -0.906,3.229 -2.969,5.354 -6.168,6.266 -3.422,0.979 -6.893,0.998 -10.23,-0.305 -6.529,-2.543 -8.877,-10.164 -5.12,-16.512 2.249,-3.799 5.606,-6.4 9.461,-8.405 6.238,-3.246 12.914,-4.974 19.896,-5.537 7.565,-0.61 15.096,-0.366 22.49,1.507 4.285,1.085 8.312,2.776 11.744,5.657 4.473,3.749 6.776,8.647 6.812,14.374 0.139,21.477 0.096,42.951 0.143,64.428 0.002,0.799 -0.248,0.983 -1.021,0.98 -8.035,-0.025 -16.074,-0.023 -24.113,-10e-4 -0.716,0.002 -0.973,-0.146 -0.941,-0.915 0.05,-1.859 0.009,-3.723 0.009,-5.821 z m 0,-37.207 c -4.793,2.104 -9.25,4.373 -13.287,7.408 -2.151,1.618 -4.033,3.483 -5.732,5.581 -4.229,5.226 -1.988,13.343 1.693,16.599 1.592,1.406 3.359,1.906 5.419,1.521 1.621,-0.307 3.149,-0.857 4.549,-1.734 1.521,-0.951 2.949,-2.072 4.539,-2.887 2.31,-1.18 2.97,-2.861 2.894,-5.445 -0.209,-6.952 -0.075,-13.909 -0.075,-21.043 z"
       style="fill:#252525" />
  </g>
  <g
     id="g3930"
     transform="matrix(0.35664127,0.00101451,-0.00580137,0.34287946,313.60067,134.50503)"
     style="opacity:0.60085837">
    <circle
       id="circle3932"
       r="16.5"
       cy="58.665001"
       cx="50.5"
       style="fill:#6b85dd;stroke:#4266d5;stroke-width:3" />
    <circle
       id="circle3934"
       r="16.5"
       cy="60.249001"
       cx="212.459"
       style="fill:#d66661;stroke:#c93d39;stroke-width:3" />
    <circle
       id="circle3936"
       r="16.5"
       cy="23.874001"
       cx="233.834"
       style="fill:#6bab5b;stroke:#3b972e;stroke-width:3" />
    <circle
       id="circle3938"
       r="16.5"
       cy="59.999001"
       cx="255.459"
       style="fill:#aa7dc0;stroke:#945bb0;stroke-width:3" />
    <path
       id="path3940"
       d="m 37.216,138.427 c 0,-15.839 0.006,-31.679 -0.018,-47.517 -10e-4,-0.827 0.169,-1.234 1.043,-1.47 7.876,-2.127 15.739,-4.308 23.606,-6.47 1.33,-0.366 1.333,-0.36 1.333,1.019 0,25.758 0.015,51.517 -0.012,77.274 -0.006,5.514 0.245,11.032 -0.272,16.543 -0.628,6.69 -2.15,13.092 -6.438,18.506 -3.781,4.771 -8.898,7.25 -14.767,8.338 -6.599,1.222 -13.251,1.552 -19.934,0.938 -4.616,-0.423 -9.045,-1.486 -12.844,-4.363 -2.863,-2.168 -4.454,-4.935 -3.745,-8.603 0.736,-3.806 3.348,-5.978 6.861,-7.127 2.262,-0.74 4.628,-0.872 6.994,-0.53 1.823,0.264 3.42,1.023 4.779,2.288 1.38,1.284 2.641,2.674 3.778,4.177 0.872,1.15 1.793,2.256 2.991,3.086 2.055,1.426 4,0.965 5.213,-1.216 0.819,-1.473 0.997,-3.106 1.173,-4.731 0.255,-2.348 0.255,-4.707 0.256,-7.062 0.005,-14.362 0.003,-28.721 0.003,-43.08 z"
       style="fill:#252525" />
    <path
       id="path3942"
       d="m 125.536,162.479 c -2.908,2.385 -5.783,4.312 -8.88,5.904 -10.348,5.323 -20.514,4.521 -30.324,-1.253 -6.71,-3.95 -11.012,-9.849 -12.52,-17.606 -0.236,-1.213 -0.363,-2.438 -0.363,-3.688 0.01,-19.797 0.017,-39.593 -0.02,-59.39 -0.002,-1.102 0.285,-1.357 1.363,-1.351 7.798,0.049 15.597,0.044 23.396,0.003 0.95,-0.005 1.177,0.25 1.175,1.183 -0.027,19.356 -0.025,38.713 -0.018,58.07 0.002,6.34 3.599,10.934 9.672,12.42 2.13,0.521 4.19,0.396 6.173,-0.6 4.26,-2.139 7.457,-5.427 10.116,-9.307 0.333,-0.487 0.224,-1 0.224,-1.51 0.007,-19.635 0.016,-39.271 -0.02,-58.904 -0.002,-1.083 0.255,-1.369 1.353,-1.361 7.838,0.052 15.677,0.045 23.515,0.004 0.916,-0.005 1.103,0.244 1.102,1.124 -0.025,27.677 -0.026,55.353 0.002,83.024 0.001,0.938 -0.278,1.099 -1.139,1.095 -7.918,-0.028 -15.837,-0.028 -23.756,-0.001 -0.815,0.003 -1.1,-0.166 -1.073,-1.037 0.067,-2.181 0.022,-4.37 0.022,-6.819 z"
       style="fill:#252525" />
    <path
       id="path3944"
       d="m 187.423,107.08 c 0,20.637 -0.011,41.273 0.026,61.91 0.003,1.119 -0.309,1.361 -1.381,1.355 -7.799,-0.052 -15.598,-0.047 -23.396,-0.008 -0.898,0.008 -1.117,-0.222 -1.115,-1.115 0.021,-39.074 0.021,-78.147 0,-117.226 0,-0.811 0.189,-1.169 1.006,-1.392 7.871,-2.149 15.73,-4.327 23.584,-6.545 1.045,-0.295 1.308,-0.17 1.306,0.985 -0.041,20.683 -0.03,41.359 -0.03,62.036 z"
       style="fill:#252525" />
    <path
       id="path3946"
       d="m 223.46,126.477 c 0,14.155 -0.011,28.312 0.021,42.467 0.002,1.027 -0.164,1.418 -1.332,1.408 -7.838,-0.061 -15.676,-0.047 -23.516,-0.01 -0.881,0.004 -1.121,-0.189 -1.119,-1.104 0.026,-26.153 0.025,-52.307 0,-78.458 0,-0.776 0.203,-1.101 0.941,-1.302 7.984,-2.172 15.972,-4.35 23.938,-6.596 1.049,-0.296 1.08,0.031 1.078,0.886 -0.017,14.236 -0.011,28.471 -0.011,42.709 z"
       style="fill:#252525" />
    <path
       id="path3948"
       d="m 277.695,163.6 c -0.786,0.646 -1.404,1.125 -2,1.635 -4.375,3.746 -9.42,5.898 -15.16,6.42 -5.792,0.527 -11.479,0.244 -16.934,-2.047 -12.08,-5.071 -15.554,-17.188 -11.938,-27.448 1.799,-5.111 5.472,-8.868 9.831,-11.94 5.681,-4.003 12.009,-6.732 18.504,-9.074 5.576,-2.014 11.186,-3.939 16.955,-5.347 0.445,-0.104 0.773,-0.243 0.757,-0.854 -0.136,-4.389 0.261,-8.79 -0.479,-13.165 -1.225,-7.209 -6.617,-10.013 -12.895,-9.348 -0.516,0.055 -1.029,0.129 -1.536,0.241 -4.877,1.081 -7.312,4.413 -7.374,10.127 -0.02,1.729 -0.229,3.418 -0.693,5.084 -0.906,3.229 -2.969,5.354 -6.168,6.266 -3.422,0.979 -6.893,0.998 -10.23,-0.305 -6.529,-2.543 -8.877,-10.164 -5.12,-16.512 2.249,-3.799 5.606,-6.4 9.461,-8.405 6.238,-3.246 12.914,-4.974 19.896,-5.537 7.565,-0.61 15.096,-0.366 22.49,1.507 4.285,1.085 8.312,2.776 11.744,5.657 4.473,3.749 6.776,8.647 6.812,14.374 0.139,21.477 0.096,42.951 0.143,64.428 0.002,0.799 -0.248,0.983 -1.021,0.98 -8.035,-0.025 -16.074,-0.023 -24.113,-10e-4 -0.716,0.002 -0.973,-0.146 -0.941,-0.915 0.05,-1.859 0.009,-3.723 0.009,-5.821 z m 0,-37.207 c -4.793,2.104 -9.25,4.373 -13.287,7.408 -2.151,1.618 -4.033,3.483 -5.732,5.581 -4.229,5.226 -1.988,13.343 1.693,16.599 1.592,1.406 3.359,1.906 5.419,1.521 1.621,-0.307 3.149,-0.857 4.549,-1.734 1.521,-0.951 2.949,-2.072 4.539,-2.887 2.31,-1.18 2.97,-2.861 2.894,-5.445 -0.209,-6.952 -0.075,-13.909 -0.075,-21.043 z"
       style="fill:#252525" />
  </g>
</svg>
