<!-- Generator: Adobe Illustrator 19.0.0, SVG Export Plug-In . SVG Version: 6.00 Build 0)  --><svg xmlns="http://www.w3.org/2000/svg" xmlns:xlink="http://www.w3.org/1999/xlink" version="1.1" id="Layer_1" x="0px" y="0px" viewBox="0 0 566 566" style="enable-background:new 0 0 566 566;" xml:space="preserve">
<rect id="XMLID_1_" width="566" height="566"/>
<g id="XMLID_7_">
	<ellipse id="XMLID_27_" cx="283.3" cy="283.6" rx="195.6" ry="260.8" style="fill:#FFFFFF;"/>
	<ellipse id="XMLID_26_" cx="283.3" cy="288.8" rx="187.8" ry="247.7" style="fill:#343434;"/>
	
		<ellipse id="XMLID_25_" transform="matrix(0.9511 0.309 -0.309 0.9511 104.5447 -92.9501)" cx="345.7" cy="283.6" rx="31.2" ry="87.9"/>
	<path id="XMLID_28_" d="M342.9,184.3c0-39.1-26.7-70.9-59.5-70.9s-59.5,31.7-59.5,70.9c0,3.1,0.2,6.1,0.5,9   c11.3,13.2,22.4,31.8,31.5,53.8c4.5,2.8,9.4,5,14.6,6.3c0.8-6.4,6.3-11.4,12.9-11.4c6.6,0,12.1,4.9,12.9,11.3   C322.9,246.5,342.9,218.2,342.9,184.3z" style="fill:#4D4D4D;"/>
	<path id="XMLID_33_" d="M270.4,253.5c-0.1,0.6-0.1,1.1-0.1,1.7c0,7.2,5.8,13,13,13s13-5.8,13-13c0-0.6,0-1.1-0.1-1.7   c-4.2,1.1-8.5,1.7-12.9,1.7S274.6,254.6,270.4,253.5z" style="fill:#4D4D4D;"/>
	<path id="XMLID_31_" d="M270.3,311.9c0-3,1-5.8,2.7-8c-2.1-11.1-5.1-22.6-8.9-34.4c-2.5-7.8-5.3-15.2-8.3-22.3   c-16.9-10.5-29-30.4-31.5-53.8c-13.7-16.1-27.8-24.1-39.2-20.3c-23.8,7.7-27.1,63.5-7.2,124.6c19.8,61,55.2,104.3,79.1,96.5   c16.6-5.4,23.2-34,19-71.5C272.5,320.2,270.3,316.3,270.3,311.9z"/>
	<path id="XMLID_32_" d="M283.3,298.9c-4.2,0-7.9,2-10.3,5.1c1.2,6.4,2.2,12.6,2.9,18.6c2.1,1.5,4.7,2.4,7.5,2.4   c7.2,0,13-5.8,13-13C296.4,304.7,290.5,298.9,283.3,298.9z" style="fill:#4D4D4D;"/>
	<ellipse id="XMLID_18_" cx="260.7" cy="455.1" rx="13" ry="6.5" style="fill:#4D4D4D;"/>
	<circle id="XMLID_12_" cx="283.3" cy="455.1" r="6.5" style="fill:#4D4D4D;"/>
	<ellipse id="XMLID_11_" cx="300.3" cy="455.1" rx="6.5" ry="13" style="fill:#4D4D4D;"/>
	<path id="XMLID_6_" d="M255.9,247.2c-9.2-22-20.3-40.6-31.5-53.8C226.8,216.8,238.9,236.7,255.9,247.2z" style="fill:#1A1A1A;"/>
	<path id="XMLID_30_" d="M273,303.9c-1.7,2.2-2.7,5-2.7,8c0,4.4,2.2,8.3,5.6,10.7C275.2,316.6,274.3,310.4,273,303.9z" style="fill:#1A1A1A;"/>
	<path id="XMLID_20_" d="M283.3,255.2c4.4,0,8.8-0.6,12.9-1.7c-0.8-6.4-6.3-11.3-12.9-11.3c-6.6,0-12.1,5-12.9,11.4   C274.6,254.6,278.9,255.2,283.3,255.2z" style="fill:#676767;"/>
</g>
</svg>